<svg width="96" height="96" viewBox="0 0 96 96" fill="none" xmlns="http://www.w3.org/2000/svg">
  <!-- Queen Icon - 22 dots scaled to 96x96 -->
  <!-- 12px squares, 3px gap (15px step), 2px radius -->

  <!-- Row 0: Crown points -->
  <rect x="6" y="2" width="12" height="12" rx="2" fill="#1CB0F6"/>
  <rect x="36" y="2" width="12" height="12" rx="2" fill="#2FCBEF"/>
  <rect x="66" y="2" width="12" height="12" rx="2" fill="#A560E8"/>

  <!-- Row 1: Crown rim -->
  <rect x="6" y="17" width="12" height="12" rx="2" fill="#58CC02"/>
  <rect x="21" y="17" width="12" height="12" rx="2" fill="#FFC800"/>
  <rect x="36" y="17" width="12" height="12" rx="2" fill="#FF9600"/>
  <rect x="51" y="17" width="12" height="12" rx="2" fill="#FF6B6B"/>
  <rect x="66" y="17" width="12" height="12" rx="2" fill="#FF4B4B"/>

  <!-- Row 2: Head -->
  <rect x="21" y="32" width="12" height="12" rx="2" fill="#1CB0F6"/>
  <rect x="36" y="32" width="12" height="12" rx="2" fill="#2FCBEF"/>
  <rect x="51" y="32" width="12" height="12" rx="2" fill="#A560E8"/>

  <!-- Row 3: Neck -->
  <rect x="21" y="47" width="12" height="12" rx="2" fill="#58CC02"/>
  <rect x="36" y="47" width="12" height="12" rx="2" fill="#FFC800"/>
  <rect x="51" y="47" width="12" height="12" rx="2" fill="#FF9600"/>

  <!-- Row 4: Body -->
  <rect x="21" y="62" width="12" height="12" rx="2" fill="#FF6B6B"/>
  <rect x="36" y="62" width="12" height="12" rx="2" fill="#FF4B4B"/>
  <rect x="51" y="62" width="12" height="12" rx="2" fill="#1CB0F6"/>

  <!-- Row 5: Base -->
  <rect x="6" y="77" width="12" height="12" rx="2" fill="#2FCBEF"/>
  <rect x="21" y="77" width="12" height="12" rx="2" fill="#A560E8"/>
  <rect x="36" y="77" width="12" height="12" rx="2" fill="#58CC02"/>
  <rect x="51" y="77" width="12" height="12" rx="2" fill="#FFC800"/>
  <rect x="66" y="77" width="12" height="12" rx="2" fill="#FF9600"/>
</svg>
